<mxfile host="Electron" agent="Mozilla/5.0 (Windows NT 10.0; Win64; x64) AppleWebKit/537.36 (KHTML, like Gecko) draw.io/28.2.7 Chrome/138.0.7204.251 Electron/37.7.1 Safari/537.36" version="28.2.7">
  <diagram name="Page-1" id="4amrl858LahUQT3y5WV-">
    <mxGraphModel dx="1042" dy="626" grid="1" gridSize="10" guides="1" tooltips="1" connect="1" arrows="1" fold="1" page="1" pageScale="1" pageWidth="850" pageHeight="1100" math="0" shadow="0">
      <root>
        <mxCell id="0" />
        <mxCell id="1" parent="0" />
        <mxCell id="gjMMqOrohkAAdzrrXGvl-1" value="&lt;font style=&quot;font-size: 20px;&quot;&gt;DATA FLOW DIAGRAM&lt;/font&gt;" style="text;html=1;align=center;verticalAlign=middle;resizable=0;points=[];autosize=1;strokeColor=none;fillColor=none;" parent="1" vertex="1">
          <mxGeometry x="25" y="35" width="240" height="40" as="geometry" />
        </mxCell>
        <mxCell id="gjMMqOrohkAAdzrrXGvl-2" value="" style="rounded=0;whiteSpace=wrap;html=1;fillColor=none;strokeColor=default;dashed=1;" parent="1" vertex="1">
          <mxGeometry x="40" y="120" width="120" height="360" as="geometry" />
        </mxCell>
        <mxCell id="gjMMqOrohkAAdzrrXGvl-3" value="" style="rounded=0;whiteSpace=wrap;html=1;fillColor=none;gradientColor=default;strokeColor=#d79b00;" parent="1" vertex="1">
          <mxGeometry x="240" y="160" width="250" height="350" as="geometry" />
        </mxCell>
        <mxCell id="gjMMqOrohkAAdzrrXGvl-4" value="SOURCES" style="rounded=0;whiteSpace=wrap;html=1;" parent="1" vertex="1">
          <mxGeometry x="60" y="100" width="80" height="30" as="geometry" />
        </mxCell>
        <mxCell id="gjMMqOrohkAAdzrrXGvl-6" value="&lt;font style=&quot;font-size: 16px;&quot;&gt;&lt;b&gt;Bronze Layer&lt;/b&gt;&lt;/font&gt;" style="rounded=1;whiteSpace=wrap;html=1;fillColor=light-dark(#FA6800,#DBB043);gradientColor=none;strokeColor=default;" parent="1" vertex="1">
          <mxGeometry x="295" y="100" width="130" height="45" as="geometry" />
        </mxCell>
        <mxCell id="ivf-xRUkt2dJVv2g77Xr-10" style="edgeStyle=orthogonalEdgeStyle;rounded=0;orthogonalLoop=1;jettySize=auto;html=1;exitX=1;exitY=0.5;exitDx=0;exitDy=0;entryX=0;entryY=0.5;entryDx=0;entryDy=0;" parent="1" source="gjMMqOrohkAAdzrrXGvl-7" target="ivf-xRUkt2dJVv2g77Xr-3" edge="1">
          <mxGeometry relative="1" as="geometry" />
        </mxCell>
        <mxCell id="gjMMqOrohkAAdzrrXGvl-7" value="&lt;font style=&quot;font-size: 13px;&quot;&gt;&lt;b style=&quot;&quot;&gt;crm_sales_details&lt;/b&gt;&lt;/font&gt;" style="rounded=1;whiteSpace=wrap;html=1;strokeColor=#AC6827;fillColor=light-dark(#FA6800,#DBB043);fontColor=#000000;gradientColor=none;" parent="1" vertex="1">
          <mxGeometry x="300" y="180" width="120" height="30" as="geometry" />
        </mxCell>
        <mxCell id="ivf-xRUkt2dJVv2g77Xr-11" style="edgeStyle=orthogonalEdgeStyle;rounded=0;orthogonalLoop=1;jettySize=auto;html=1;exitX=1;exitY=0.5;exitDx=0;exitDy=0;entryX=0;entryY=0.5;entryDx=0;entryDy=0;" parent="1" source="gjMMqOrohkAAdzrrXGvl-8" target="ivf-xRUkt2dJVv2g77Xr-4" edge="1">
          <mxGeometry relative="1" as="geometry" />
        </mxCell>
        <mxCell id="gjMMqOrohkAAdzrrXGvl-8" value="&lt;font style=&quot;font-size: 13px;&quot;&gt;&lt;b style=&quot;&quot;&gt;crm_cust_info&lt;/b&gt;&lt;/font&gt;" style="rounded=1;whiteSpace=wrap;html=1;strokeColor=#AC6827;fillColor=light-dark(#FA6800,#DBB043);fontColor=#000000;gradientColor=none;" parent="1" vertex="1">
          <mxGeometry x="300" y="220" width="120" height="30" as="geometry" />
        </mxCell>
        <mxCell id="ivf-xRUkt2dJVv2g77Xr-12" style="edgeStyle=orthogonalEdgeStyle;rounded=0;orthogonalLoop=1;jettySize=auto;html=1;exitX=1;exitY=0.5;exitDx=0;exitDy=0;" parent="1" source="gjMMqOrohkAAdzrrXGvl-9" target="ivf-xRUkt2dJVv2g77Xr-5" edge="1">
          <mxGeometry relative="1" as="geometry" />
        </mxCell>
        <mxCell id="gjMMqOrohkAAdzrrXGvl-9" value="&lt;font style=&quot;font-size: 13px;&quot;&gt;&lt;b style=&quot;&quot;&gt;&lt;font style=&quot;&quot;&gt;crm_prd_&lt;/font&gt;info&lt;/b&gt;&lt;/font&gt;" style="rounded=1;whiteSpace=wrap;html=1;strokeColor=#AC6827;fillColor=light-dark(#FA6800,#DBB043);fontColor=#000000;gradientColor=none;" parent="1" vertex="1">
          <mxGeometry x="300" y="260" width="120" height="30" as="geometry" />
        </mxCell>
        <mxCell id="ivf-xRUkt2dJVv2g77Xr-13" style="edgeStyle=orthogonalEdgeStyle;rounded=0;orthogonalLoop=1;jettySize=auto;html=1;exitX=1;exitY=0.5;exitDx=0;exitDy=0;" parent="1" source="gjMMqOrohkAAdzrrXGvl-10" target="ivf-xRUkt2dJVv2g77Xr-6" edge="1">
          <mxGeometry relative="1" as="geometry" />
        </mxCell>
        <mxCell id="gjMMqOrohkAAdzrrXGvl-10" value="&lt;font style=&quot;font-size: 13px;&quot;&gt;&lt;b style=&quot;&quot;&gt;erp_cust_az12&lt;/b&gt;&lt;/font&gt;" style="rounded=1;whiteSpace=wrap;html=1;strokeColor=#AC6827;fillColor=light-dark(#FA6800,#DBB043);fontColor=#000000;gradientColor=none;" parent="1" vertex="1">
          <mxGeometry x="300" y="360" width="120" height="30" as="geometry" />
        </mxCell>
        <mxCell id="ivf-xRUkt2dJVv2g77Xr-14" style="edgeStyle=orthogonalEdgeStyle;rounded=0;orthogonalLoop=1;jettySize=auto;html=1;exitX=1;exitY=0.5;exitDx=0;exitDy=0;" parent="1" source="gjMMqOrohkAAdzrrXGvl-11" target="ivf-xRUkt2dJVv2g77Xr-7" edge="1">
          <mxGeometry relative="1" as="geometry" />
        </mxCell>
        <mxCell id="gjMMqOrohkAAdzrrXGvl-11" value="&lt;font style=&quot;font-size: 13px;&quot;&gt;&lt;b style=&quot;&quot;&gt;erp_loc_a101&lt;/b&gt;&lt;/font&gt;" style="rounded=1;whiteSpace=wrap;html=1;strokeColor=#AC6827;fillColor=light-dark(#FA6800,#DBB043);fontColor=#000000;gradientColor=none;" parent="1" vertex="1">
          <mxGeometry x="300" y="400" width="120" height="30" as="geometry" />
        </mxCell>
        <mxCell id="ivf-xRUkt2dJVv2g77Xr-15" style="edgeStyle=orthogonalEdgeStyle;rounded=0;orthogonalLoop=1;jettySize=auto;html=1;exitX=1;exitY=0.5;exitDx=0;exitDy=0;" parent="1" source="gjMMqOrohkAAdzrrXGvl-12" target="ivf-xRUkt2dJVv2g77Xr-8" edge="1">
          <mxGeometry relative="1" as="geometry" />
        </mxCell>
        <mxCell id="gjMMqOrohkAAdzrrXGvl-12" value="&lt;font style=&quot;font-size: 13px;&quot;&gt;&lt;b style=&quot;&quot;&gt;erp_px_cat_g1v2&lt;/b&gt;&lt;/font&gt;" style="rounded=1;whiteSpace=wrap;html=1;strokeColor=#AC6827;fillColor=light-dark(#FA6800,#DBB043);fontColor=#000000;gradientColor=none;" parent="1" vertex="1">
          <mxGeometry x="300" y="440" width="120" height="30" as="geometry" />
        </mxCell>
        <mxCell id="gjMMqOrohkAAdzrrXGvl-13" style="edgeStyle=orthogonalEdgeStyle;rounded=0;orthogonalLoop=1;jettySize=auto;html=1;exitX=0.5;exitY=1;exitDx=0;exitDy=0;" parent="1" source="gjMMqOrohkAAdzrrXGvl-11" target="gjMMqOrohkAAdzrrXGvl-11" edge="1">
          <mxGeometry relative="1" as="geometry" />
        </mxCell>
        <mxCell id="gjMMqOrohkAAdzrrXGvl-15" value="" style="image;aspect=fixed;html=1;points=[];align=center;fontSize=12;image=img/lib/azure2/general/Folder_Blank.svg;" parent="1" vertex="1">
          <mxGeometry x="70" y="180" width="64" height="51.94" as="geometry" />
        </mxCell>
        <mxCell id="gjMMqOrohkAAdzrrXGvl-16" value="" style="image;aspect=fixed;html=1;points=[];align=center;fontSize=12;image=img/lib/azure2/general/Folder_Blank.svg;" parent="1" vertex="1">
          <mxGeometry x="70" y="377" width="65.3" height="53" as="geometry" />
        </mxCell>
        <mxCell id="gjMMqOrohkAAdzrrXGvl-22" style="edgeStyle=orthogonalEdgeStyle;rounded=0;orthogonalLoop=1;jettySize=auto;html=1;exitX=1;exitY=0.5;exitDx=0;exitDy=0;entryX=0;entryY=0.25;entryDx=0;entryDy=0;" parent="1" source="gjMMqOrohkAAdzrrXGvl-20" target="gjMMqOrohkAAdzrrXGvl-7" edge="1">
          <mxGeometry relative="1" as="geometry" />
        </mxCell>
        <mxCell id="gjMMqOrohkAAdzrrXGvl-23" style="edgeStyle=orthogonalEdgeStyle;rounded=0;orthogonalLoop=1;jettySize=auto;html=1;exitX=1;exitY=0.5;exitDx=0;exitDy=0;" parent="1" source="gjMMqOrohkAAdzrrXGvl-20" target="gjMMqOrohkAAdzrrXGvl-8" edge="1">
          <mxGeometry relative="1" as="geometry" />
        </mxCell>
        <mxCell id="gjMMqOrohkAAdzrrXGvl-24" style="edgeStyle=orthogonalEdgeStyle;rounded=0;orthogonalLoop=1;jettySize=auto;html=1;exitX=1;exitY=0.5;exitDx=0;exitDy=0;entryX=0;entryY=0.25;entryDx=0;entryDy=0;" parent="1" source="gjMMqOrohkAAdzrrXGvl-20" target="gjMMqOrohkAAdzrrXGvl-9" edge="1">
          <mxGeometry relative="1" as="geometry" />
        </mxCell>
        <mxCell id="gjMMqOrohkAAdzrrXGvl-20" value="&lt;b&gt;&lt;font style=&quot;font-size: 16px;&quot;&gt;CRM&lt;/font&gt;&lt;/b&gt;" style="text;html=1;align=center;verticalAlign=middle;whiteSpace=wrap;rounded=0;" parent="1" vertex="1">
          <mxGeometry x="69" y="230" width="60" height="30" as="geometry" />
        </mxCell>
        <mxCell id="gjMMqOrohkAAdzrrXGvl-25" style="edgeStyle=orthogonalEdgeStyle;rounded=0;orthogonalLoop=1;jettySize=auto;html=1;exitX=1;exitY=0.5;exitDx=0;exitDy=0;entryX=0;entryY=0.5;entryDx=0;entryDy=0;" parent="1" source="gjMMqOrohkAAdzrrXGvl-21" target="gjMMqOrohkAAdzrrXGvl-10" edge="1">
          <mxGeometry relative="1" as="geometry" />
        </mxCell>
        <mxCell id="gjMMqOrohkAAdzrrXGvl-26" style="edgeStyle=orthogonalEdgeStyle;rounded=0;orthogonalLoop=1;jettySize=auto;html=1;exitX=1;exitY=0.5;exitDx=0;exitDy=0;entryX=0;entryY=0.5;entryDx=0;entryDy=0;" parent="1" source="gjMMqOrohkAAdzrrXGvl-21" target="gjMMqOrohkAAdzrrXGvl-11" edge="1">
          <mxGeometry relative="1" as="geometry" />
        </mxCell>
        <mxCell id="gjMMqOrohkAAdzrrXGvl-27" style="edgeStyle=orthogonalEdgeStyle;rounded=0;orthogonalLoop=1;jettySize=auto;html=1;exitX=1;exitY=0.75;exitDx=0;exitDy=0;entryX=0;entryY=0.5;entryDx=0;entryDy=0;" parent="1" source="gjMMqOrohkAAdzrrXGvl-21" target="gjMMqOrohkAAdzrrXGvl-12" edge="1">
          <mxGeometry relative="1" as="geometry" />
        </mxCell>
        <mxCell id="gjMMqOrohkAAdzrrXGvl-21" value="&lt;b&gt;&lt;font style=&quot;font-size: 16px;&quot;&gt;ERP&lt;/font&gt;&lt;/b&gt;" style="text;html=1;align=center;verticalAlign=middle;whiteSpace=wrap;rounded=0;" parent="1" vertex="1">
          <mxGeometry x="70" y="430" width="60" height="30" as="geometry" />
        </mxCell>
        <mxCell id="ivf-xRUkt2dJVv2g77Xr-1" value="" style="rounded=0;whiteSpace=wrap;html=1;fillColor=none;gradientColor=default;strokeColor=#666666;" parent="1" vertex="1">
          <mxGeometry x="555" y="160" width="250" height="350" as="geometry" />
        </mxCell>
        <mxCell id="ivf-xRUkt2dJVv2g77Xr-2" value="&lt;font style=&quot;font-size: 16px; color: rgb(0, 0, 0);&quot;&gt;&lt;b&gt;Silver Layer&lt;/b&gt;&lt;/font&gt;" style="rounded=1;whiteSpace=wrap;html=1;strokeColor=light-dark(#666666, #000000);fillColor=#f5f5f5;gradientColor=#000000;" parent="1" vertex="1">
          <mxGeometry x="615" y="100" width="130" height="45" as="geometry" />
        </mxCell>
        <mxCell id="cvuUFaH6LQqTVbReHNxj-10" style="edgeStyle=orthogonalEdgeStyle;rounded=0;orthogonalLoop=1;jettySize=auto;html=1;exitX=1;exitY=0.5;exitDx=0;exitDy=0;" edge="1" parent="1" source="ivf-xRUkt2dJVv2g77Xr-3" target="cvuUFaH6LQqTVbReHNxj-3">
          <mxGeometry relative="1" as="geometry" />
        </mxCell>
        <mxCell id="ivf-xRUkt2dJVv2g77Xr-3" value="&lt;font style=&quot;font-size: 13px;&quot;&gt;&lt;b style=&quot;&quot;&gt;crm_sales_details&lt;/b&gt;&lt;/font&gt;" style="rounded=1;whiteSpace=wrap;html=1;" parent="1" vertex="1">
          <mxGeometry x="620" y="180" width="120" height="30" as="geometry" />
        </mxCell>
        <mxCell id="cvuUFaH6LQqTVbReHNxj-11" style="edgeStyle=orthogonalEdgeStyle;rounded=0;orthogonalLoop=1;jettySize=auto;html=1;exitX=1;exitY=0.5;exitDx=0;exitDy=0;entryX=0;entryY=0.5;entryDx=0;entryDy=0;jumpStyle=gap;" edge="1" parent="1" source="ivf-xRUkt2dJVv2g77Xr-4" target="cvuUFaH6LQqTVbReHNxj-4">
          <mxGeometry relative="1" as="geometry" />
        </mxCell>
        <mxCell id="ivf-xRUkt2dJVv2g77Xr-4" value="&lt;font style=&quot;font-size: 13px;&quot;&gt;&lt;b style=&quot;&quot;&gt;crm_cust_info&lt;/b&gt;&lt;/font&gt;" style="rounded=1;whiteSpace=wrap;html=1;" parent="1" vertex="1">
          <mxGeometry x="620" y="220" width="120" height="30" as="geometry" />
        </mxCell>
        <mxCell id="cvuUFaH6LQqTVbReHNxj-18" style="edgeStyle=orthogonalEdgeStyle;rounded=0;orthogonalLoop=1;jettySize=auto;html=1;exitX=1;exitY=0.5;exitDx=0;exitDy=0;entryX=0;entryY=0.5;entryDx=0;entryDy=0;jumpStyle=gap;" edge="1" parent="1" source="ivf-xRUkt2dJVv2g77Xr-5" target="cvuUFaH6LQqTVbReHNxj-5">
          <mxGeometry relative="1" as="geometry">
            <Array as="points">
              <mxPoint x="800" y="275" />
              <mxPoint x="800" y="340" />
              <mxPoint x="850" y="340" />
              <mxPoint x="850" y="435" />
            </Array>
          </mxGeometry>
        </mxCell>
        <mxCell id="ivf-xRUkt2dJVv2g77Xr-5" value="&lt;font style=&quot;font-size: 13px;&quot;&gt;&lt;b style=&quot;&quot;&gt;&lt;font style=&quot;&quot;&gt;crm_prd_&lt;/font&gt;info&lt;/b&gt;&lt;/font&gt;" style="rounded=1;whiteSpace=wrap;html=1;" parent="1" vertex="1">
          <mxGeometry x="620" y="260" width="120" height="30" as="geometry" />
        </mxCell>
        <mxCell id="cvuUFaH6LQqTVbReHNxj-12" style="edgeStyle=orthogonalEdgeStyle;rounded=0;orthogonalLoop=1;jettySize=auto;html=1;exitX=1;exitY=0.5;exitDx=0;exitDy=0;entryX=0;entryY=0.5;entryDx=0;entryDy=0;jumpStyle=gap;" edge="1" parent="1" source="ivf-xRUkt2dJVv2g77Xr-6" target="cvuUFaH6LQqTVbReHNxj-4">
          <mxGeometry relative="1" as="geometry" />
        </mxCell>
        <mxCell id="ivf-xRUkt2dJVv2g77Xr-6" value="&lt;font style=&quot;font-size: 13px;&quot;&gt;&lt;b style=&quot;&quot;&gt;erp_cust_az12&lt;/b&gt;&lt;/font&gt;" style="rounded=1;whiteSpace=wrap;html=1;" parent="1" vertex="1">
          <mxGeometry x="620" y="360" width="120" height="30" as="geometry" />
        </mxCell>
        <mxCell id="cvuUFaH6LQqTVbReHNxj-15" style="edgeStyle=orthogonalEdgeStyle;rounded=0;orthogonalLoop=1;jettySize=auto;html=1;exitX=1;exitY=0.5;exitDx=0;exitDy=0;entryX=0;entryY=0.5;entryDx=0;entryDy=0;jumpStyle=gap;" edge="1" parent="1" source="ivf-xRUkt2dJVv2g77Xr-7" target="cvuUFaH6LQqTVbReHNxj-4">
          <mxGeometry relative="1" as="geometry" />
        </mxCell>
        <mxCell id="ivf-xRUkt2dJVv2g77Xr-7" value="&lt;font style=&quot;font-size: 13px;&quot;&gt;&lt;b style=&quot;&quot;&gt;erp_loc_a101&lt;/b&gt;&lt;/font&gt;" style="rounded=1;whiteSpace=wrap;html=1;" parent="1" vertex="1">
          <mxGeometry x="620" y="400" width="120" height="30" as="geometry" />
        </mxCell>
        <mxCell id="cvuUFaH6LQqTVbReHNxj-17" style="edgeStyle=orthogonalEdgeStyle;rounded=0;orthogonalLoop=1;jettySize=auto;html=1;exitX=1;exitY=0.5;exitDx=0;exitDy=0;entryX=0;entryY=0.75;entryDx=0;entryDy=0;" edge="1" parent="1" source="ivf-xRUkt2dJVv2g77Xr-8" target="cvuUFaH6LQqTVbReHNxj-5">
          <mxGeometry relative="1" as="geometry" />
        </mxCell>
        <mxCell id="ivf-xRUkt2dJVv2g77Xr-8" value="&lt;font style=&quot;font-size: 13px;&quot;&gt;&lt;b&gt;erp_px_cat_g1v2&lt;/b&gt;&lt;/font&gt;" style="rounded=1;whiteSpace=wrap;html=1;" parent="1" vertex="1">
          <mxGeometry x="620" y="440" width="120" height="30" as="geometry" />
        </mxCell>
        <mxCell id="ivf-xRUkt2dJVv2g77Xr-9" style="edgeStyle=orthogonalEdgeStyle;rounded=0;orthogonalLoop=1;jettySize=auto;html=1;exitX=0.5;exitY=1;exitDx=0;exitDy=0;fillColor=#f5f5f5;gradientColor=#b3b3b3;strokeColor=#666666;" parent="1" source="ivf-xRUkt2dJVv2g77Xr-7" target="ivf-xRUkt2dJVv2g77Xr-7" edge="1">
          <mxGeometry relative="1" as="geometry" />
        </mxCell>
        <mxCell id="cvuUFaH6LQqTVbReHNxj-1" value="" style="rounded=0;whiteSpace=wrap;html=1;fillColor=none;strokeColor=#B09500;fontColor=#000000;" vertex="1" parent="1">
          <mxGeometry x="880" y="160" width="250" height="350" as="geometry" />
        </mxCell>
        <mxCell id="cvuUFaH6LQqTVbReHNxj-2" value="&lt;font style=&quot;font-size: 16px; color: rgb(0, 0, 0);&quot;&gt;&lt;b&gt;Gold Layer&lt;/b&gt;&lt;/font&gt;" style="rounded=1;whiteSpace=wrap;html=1;strokeColor=#d79b00;fillColor=light-dark(#000000,#F4FF6F);gradientColor=#ffa500;" vertex="1" parent="1">
          <mxGeometry x="940" y="100" width="130" height="45" as="geometry" />
        </mxCell>
        <mxCell id="cvuUFaH6LQqTVbReHNxj-3" value="&lt;font style=&quot;font-size: 15px;&quot;&gt;&lt;b style=&quot;&quot;&gt;fact_sales&lt;/b&gt;&lt;/font&gt;" style="rounded=1;whiteSpace=wrap;html=1;fillColor=#e3c800;fontColor=#000000;strokeColor=#B09500;" vertex="1" parent="1">
          <mxGeometry x="940" y="181.94" width="125" height="50" as="geometry" />
        </mxCell>
        <mxCell id="cvuUFaH6LQqTVbReHNxj-4" value="&lt;font style=&quot;font-size: 14px;&quot;&gt;&lt;b style=&quot;&quot;&gt;dim_customers&lt;/b&gt;&lt;/font&gt;" style="rounded=1;whiteSpace=wrap;html=1;fillColor=#e3c800;strokeColor=#B09500;fontColor=#000000;" vertex="1" parent="1">
          <mxGeometry x="945" y="300" width="130" height="50" as="geometry" />
        </mxCell>
        <mxCell id="cvuUFaH6LQqTVbReHNxj-5" value="&lt;b&gt;&lt;font style=&quot;font-size: 14px;&quot;&gt;dim_products&lt;/font&gt;&lt;/b&gt;" style="rounded=1;whiteSpace=wrap;html=1;fillColor=#e3c800;fontColor=#000000;strokeColor=#B09500;" vertex="1" parent="1">
          <mxGeometry x="945" y="410" width="135" height="50" as="geometry" />
        </mxCell>
        <mxCell id="cvuUFaH6LQqTVbReHNxj-9" style="edgeStyle=orthogonalEdgeStyle;rounded=0;orthogonalLoop=1;jettySize=auto;html=1;exitX=0.5;exitY=1;exitDx=0;exitDy=0;fillColor=#f5f5f5;gradientColor=#b3b3b3;strokeColor=#666666;" edge="1" parent="1">
          <mxGeometry relative="1" as="geometry">
            <mxPoint x="1005" y="430" as="sourcePoint" />
            <mxPoint x="1005" y="430" as="targetPoint" />
          </mxGeometry>
        </mxCell>
      </root>
    </mxGraphModel>
  </diagram>
</mxfile>
